<svg width="0" height="0" class="hidden">

<!-- [ ICONS ] -->
<!-- icon: arrow --> 
  <symbol xmlns="http://www.w3.org/2000/svg" viewBox="0 0 18 14" id="ico-arrow">
    <g clip-path="url(#clip0)">
      <path d="M11.936 14L17.6583 7.84602C17.8914 7.57941 18.0068 7.24217 17.982 6.90104C17.9572 6.55991 17.794 6.23975 17.5244 6.00391C17.2304 5.79328 16.8608 5.69179 16.4891 5.7196C16.1174 5.7474 15.7706 5.90246 15.5176 6.15401L8.22003 14H11.936Z" fill="white"></path>
      <path d="M8.19025 0L15.4879 7.846C15.7428 8.09553 16.0906 8.24804 16.4622 8.27331C16.8338 8.29859 17.2024 8.19478 17.4946 7.98245C17.7645 7.75085 17.9307 7.43526 17.9609 7.09722C17.9911 6.75917 17.8834 6.42291 17.6583 6.154L11.9359 0L8.19025 0Z" fill="white"></path>
      <path d="M-0.261719 8.29643H16.3116C16.7058 8.29643 17.0837 8.15267 17.3625 7.89677C17.6412 7.64087 17.798 7.2938 17.798 6.93191C17.798 6.57001 17.6412 6.22294 17.3625 5.96704C17.0837 5.71114 16.7058 5.56738 16.3116 5.56738L-0.261719 5.56738L-0.261719 8.29643Z" fill="white"></path>
    </g>
    <defs>
      <clipPath id="clip0">
        <rect width="18" height="14" fill="white"></rect>
      </clipPath>
    </defs>
  </symbol>

<!-- icon: plus --> 
  <symbol xmlns="http://www.w3.org/2000/svg" viewBox="0 0 17 17" id="ico-plus">
    <path d="M16.936 10.2H10.564V16.5H6.712V10.2H0.34V6.6H6.712V0.299998H10.564V6.6H16.936V10.2Z" fill="white"></path>
  </symbol>


<!-- icon: bell --> 
  <symbol xmlns="http://www.w3.org/2000/svg" viewBox="0 0 20 20" id="ico-bell">
    <g clip-path="url(#clip0)">
      <path d="M10 20C10.663 20 11.2989 19.7366 11.7678 19.2678C12.2366 18.7989 12.5 18.163 12.5 17.5H7.5C7.5 18.163 7.76339 18.7989 8.23223 19.2678C8.70107 19.7366 9.33696 20 10 20ZM10 2.3975L9.00375 2.59875C7.8737 2.829 6.85791 3.44263 6.12831 4.33578C5.39872 5.22892 5.00012 6.34673 5 7.5C5 8.285 4.8325 10.2462 4.42625 12.1775C4.22625 13.1362 3.95625 14.135 3.5975 15H16.4025C16.0437 14.135 15.775 13.1375 15.5737 12.1775C15.1675 10.2462 15 8.285 15 7.5C14.9996 6.34694 14.6009 5.22943 13.8713 4.33654C13.1417 3.44365 12.1261 2.83021 10.9962 2.6L10 2.3975ZM17.775 15C18.0538 15.5587 18.3763 16.0012 18.75 16.25H1.25C1.62375 16.0012 1.94625 15.5587 2.225 15C3.35 12.75 3.75 8.6 3.75 7.5C3.75 4.475 5.9 1.95 8.75625 1.37375C8.7388 1.19994 8.75798 1.02441 8.81254 0.858465C8.8671 0.692524 8.95584 0.539861 9.07303 0.410321C9.19022 0.280782 9.33325 0.177242 9.49292 0.10638C9.65258 0.035517 9.82532 -0.00109482 10 -0.00109482C10.1747 -0.00109482 10.3474 0.035517 10.5071 0.10638C10.6667 0.177242 10.8098 0.280782 10.927 0.410321C11.0442 0.539861 11.1329 0.692524 11.1875 0.858465C11.242 1.02441 11.2612 1.19994 11.2437 1.37375C12.6566 1.66112 13.9267 2.42795 14.839 3.54437C15.7514 4.6608 16.2498 6.05822 16.25 7.5C16.25 8.6 16.65 12.75 17.775 15Z" fill="#FC3E4B"></path>
      <path d="M10 2.3975L9.00375 2.59875C7.8737 2.829 6.85791 3.44263 6.12831 4.33578C5.39872 5.22892 5.00012 6.34673 5 7.5C5 8.285 4.8325 10.2462 4.42625 12.1775C4.22625 13.1362 3.95625 14.135 3.5975 15H16.4025C16.0437 14.135 15.775 13.1375 15.5737 12.1775C15.1675 10.2462 15 8.285 15 7.5C14.9996 6.34694 14.6009 5.22943 13.8713 4.33654C13.1417 3.44365 12.1261 2.83021 10.9962 2.6L10 2.3975Z" fill="#FC3E4B"></path>
    </g>
    <defs>
      <clipPath id="clip0">
        <rect width="20" height="20" fill="white"></rect>
      </clipPath>
    </defs>
  </symbol>

</svg>